# xmcd
#
# Track frame offsets: 
#        150
#        18135
#        19944
#        48715
#        49950
#        69740
#        71105
#        95345
#        96307
#        108902
#        110290
#        117967
#        151022
#        153547
#        173720
#        176027
#        179035
#        210109
#
# Disc length: 3258 seconds
#
# Revision: 3
# Processed by: cddbd v1.5.2PL0 Copyright (c) Steve Scherf et al.
# Submitted via: ExactAudioCopy v0.99pb4
#
DISCID=f30cb812
DTITLE=Project Z - Project Z
DYEAR=2000
DGENRE=Fusion
TTITLE0=Raging Torrent
TTITLE1=Guitargument I
TTITLE2=Mud Bug
TTITLE3=Extra Cold
TTITLE4=Augusta's Ankle
TTITLE5=Psychic Flutter
TTITLE6=Rainbow
TTITLE7=Guitargument II
TTITLE8=Albright Special
TTITLE9=The Third Man
TTITLE10=Genetic Drift
TTITLE11=Yachtz
TTITLE12=Guitargument III
TTITLE13=Utensil Oceans
TTITLE14=She Freak
TTITLE15=Jean
TTITLE16=Separated Gestures
TTITLE17=Isolated Light
EXTD=
EXTT0=
EXTT1=
EXTT2=
EXTT3=
EXTT4=
EXTT5=
EXTT6=
EXTT7=
EXTT8=
EXTT9=
EXTT10=
EXTT11=
EXTT12=
EXTT13=
EXTT14=
EXTT15=
EXTT16=
EXTT17=
PLAYORDER=
